<svg xmlns="http://www.w3.org/2000/svg" viewBox="0 0 100 100"><g class="nc-icon-wrapper"><defs/><circle class="Graphic-Style-17" cx="48.919" cy="53.994" r="40" fill="#e8f4fa" stroke="#daedf7" stroke-miterlimit="10"/><path class="a" d="M65.679 40.045a4.02 4.02 0 0 1 4.02-4.02h-29.75a4.824 4.824 0 0 0-4.824 4.824v45.027h26.534a4.02 4.02 0 0 0 4.02-4.02V40.045z" style="" fill="#e8f4fa"/><ellipse class="b" cx="46.373" cy="86.68" rx="17.43" ry="1.478" fill="#45413c" opacity="0.15"/><path class="c" d="M39.949 40.849h25.73v-.8a4.02 4.02 0 0 1 4.02-4.02h-29.75a4.824 4.824 0 0 0-4.824 4.824v4.824a4.824 4.824 0 0 1 4.824-4.828z" style="" fill="#fff"/><path class="d" d="M65.679 40.045a4.02 4.02 0 0 1 4.02-4.02h-29.75a4.824 4.824 0 0 0-4.824 4.824v45.027h26.534a4.02 4.02 0 0 0 4.02-4.02V40.045z" fill="none" stroke="#45413c" stroke-linecap="round" stroke-linejoin="round"/><path class="e" d="M73.72 40.045A4.024 4.024 0 0 0 68.9 36.1a4.119 4.119 0 0 0-3.224 4.093v3.871h6.7a1.34 1.34 0 0 0 1.34-1.34z" stroke="#45413c" stroke-linecap="round" stroke-linejoin="round" fill="#daedf7"/><path class="f" d="M37.652 52.106a1.608 1.608 0 0 1-1.608 1.608H28a1.608 1.608 0 0 1 0-3.214h8.041a1.608 1.608 0 0 1 1.611 1.606z" stroke="#45413c" stroke-linecap="round" stroke-linejoin="round" fill="#87898c"/><path class="f" d="M37.652 55.322a1.608 1.608 0 0 1-1.608 1.608H28a1.608 1.608 0 0 1 0-3.216h8.041a1.608 1.608 0 0 1 1.611 1.608z" stroke="#45413c" stroke-linecap="round" stroke-linejoin="round" fill="#87898c"/><path class="g" d="M36.044 56.93a4.021 4.021 0 0 1-8.041 0z" stroke="#45413c" stroke-linecap="round" stroke-linejoin="round" fill="#8ca4b8"/><path class="h" d="M51 57.6l22.026 22.688a1.34 1.34 0 0 0 2.3-.933V56.662a1.34 1.34 0 0 0-1.34-1.34H51.962A1.34 1.34 0 0 0 51 57.6zm20.308 14.169L59.247 59.342h12.061z" stroke="#45413c" stroke-linecap="round" stroke-linejoin="round" fill="#00dba8"/><path class="i" d="M58.379 77.836a.672.672 0 0 1 .442 1.172 4.021 4.021 0 0 0 2.838 6.868H31.253a4.118 4.118 0 0 1-4.092-3.224 4.024 4.024 0 0 1 3.944-4.816z" fill="#fff" stroke="#45413c" stroke-linecap="round" stroke-linejoin="round"/><path class="j" d="M41.557 36.025c0-5.71-3.824-9.649-9.533-9.649a9.385 9.385 0 0 0-9.764 9.763c0 5.018 5.628 10.338 5.628 14.359h8.041c0-2.872 5.628-9.082 5.628-14.473z" style="" fill="#ffe500"/><path class="k" d="M32.023 31.2c4.8 0 8.258 2.79 9.241 7.07a9.7 9.7 0 0 0 .293-2.245c0-5.71-3.824-9.649-9.534-9.649a9.384 9.384 0 0 0-9.763 9.763 8.309 8.309 0 0 0 .324 2.175 9.3 9.3 0 0 1 9.439-7.114z" style="" fill="#fff48c"/><path class="d" d="M41.557 36.025c0-5.71-3.824-9.649-9.533-9.649a9.385 9.385 0 0 0-9.764 9.763c0 5.018 5.628 10.338 5.628 14.359h8.041c0-2.872 5.628-9.082 5.628-14.473z" fill="none" stroke="#45413c" stroke-linecap="round" stroke-linejoin="round"/><path class="d" d="M31.105 50.5l-3.578-10.737a1.83 1.83 0 0 1 3.031-1.873 1.911 1.911 0 0 0 2.7 0 1.83 1.83 0 0 1 3.031 1.873L32.713 50.5" fill="none" stroke="#45413c" stroke-linecap="round" stroke-linejoin="round"/><path class="l" d="M87.389 28.386V27.18" fill="none" stroke-linecap="round" stroke-linejoin="round" stroke="#00aed9"/><path class="l" d="M89.947 29.446l.853-.853" fill="none" stroke-linecap="round" stroke-linejoin="round" stroke="#00aed9"/><path class="l" d="M91.007 32.004h1.206" fill="none" stroke-linecap="round" stroke-linejoin="round" stroke="#00aed9"/><path class="l" d="M89.947 34.563l.853.853" fill="none" stroke-linecap="round" stroke-linejoin="round" stroke="#00aed9"/><path class="l" d="M87.389 35.623v1.206" fill="none" stroke-linecap="round" stroke-linejoin="round" stroke="#00aed9"/><path class="l" d="M84.83 34.563l-.853.853" fill="none" stroke-linecap="round" stroke-linejoin="round" stroke="#00aed9"/><path class="l" d="M83.77 32.004h-1.206" fill="none" stroke-linecap="round" stroke-linejoin="round" stroke="#00aed9"/><path class="l" d="M84.83 29.446l-.853-.853" fill="none" stroke-linecap="round" stroke-linejoin="round" stroke="#00aed9"/><path class="l" d="M35.527 21.82v-6.433" fill="none" stroke-linecap="round" stroke-linejoin="round" stroke="#00aed9"/><path class="l" d="M32.311 18.603h6.432" fill="none" stroke-linecap="round" stroke-linejoin="round" stroke="#00aed9"/><path class="l" d="M16.632 32.808v-3.216" fill="none" stroke-linecap="round" stroke-linejoin="round" stroke="#00aed9"/><path class="l" d="M15.024 31.2h3.216" fill="none" stroke-linecap="round" stroke-linejoin="round" stroke="#00aed9"/><g><path class="l" d="M70.503 30.798v-3.216" fill="none" stroke-linecap="round" stroke-linejoin="round" stroke="#00aed9"/><path class="l" d="M68.895 29.19h3.217" fill="none" stroke-linecap="round" stroke-linejoin="round" stroke="#00aed9"/></g><path class="m" d="M7.878 49.759A.773.773 0 0 0 8.56 50.9h6.494a.774.774 0 0 0 .683-1.137l-3.248-6.093a.773.773 0 0 0-1.364 0z" fill="none" stroke-linecap="round" stroke-linejoin="round" stroke="#ff4064"/><path class="n" d="M55.324 31.215a13.886 13.886 0 0 1-9.285-17.3 11.109 11.109 0 0 1 13.844-7.432 8.887 8.887 0 0 1 5.942 11.075 7.111 7.111 0 0 1-8.86 4.754 5.689 5.689 0 0 1-3.8-7.089 4.55 4.55 0 0 1 5.671-3.042 3.64 3.64 0 0 1 2.433 4.536 2.913 2.913 0 0 1-3.629 1.948" fill="none" stroke-linecap="round" stroke-linejoin="round" stroke="#48cf3e"/><path class="o" d="M80.27 57.48v-1.2a1.31 1.31 0 0 1 1.31-1.31h1.085a1.309 1.309 0 0 0 1.31-1.31v-1.082a1.311 1.311 0 0 1 1.31-1.31h1.085a1.309 1.309 0 0 0 1.31-1.309v-1.086a1.309 1.309 0 0 1 1.31-1.309h1.085a1.311 1.311 0 0 0 1.31-1.31v-1.085" fill="none" stroke-linecap="round" stroke-linejoin="round" stroke="#ffb700"/><path class="d" d="M44.774 45.673h15.277" fill="none" stroke="#45413c" stroke-linecap="round" stroke-linejoin="round"/><path class="d" d="M41.557 50.498h18.494" fill="none" stroke="#45413c" stroke-linecap="round" stroke-linejoin="round"/><path class="d" d="M39.949 60.146h7.237" fill="none" stroke="#45413c" stroke-linecap="round" stroke-linejoin="round"/><path class="d" d="M39.949 64.971H52.01" fill="none" stroke="#45413c" stroke-linecap="round" stroke-linejoin="round"/><path class="d" d="M39.949 69.795h17.69" fill="none" stroke="#45413c" stroke-linecap="round" stroke-linejoin="round"/></g></svg>